# xmcd
#
# Track frame offsets: 
#        150
#        28454
#        56088
#        85709
#        114801
#        144077
#        161704
#        187848
#
# Disc length: 2902 seconds
#
# Revision: 0
# Processed by: cddbd v1.5.2PL0 Copyright (c) Steve Scherf et al.
# Submitted via: ExactAudioCopy v1.0b4
#
DISCID=5e0b5408
DTITLE=The Soulard Blues Band - On The Mississippi
DYEAR=2015
DGENRE=Blues
TTITLE0=Jump, Jive and Wail
TTITLE1=Watermelon Man
TTITLE2=Same Thing
TTITLE3=She's Crazy
TTITLE4=Pink Champagne
TTITLE5=How Many More Years
TTITLE6=The Blues Is Alright
TTITLE7=Fulsom Prison Blues-Mystery Train
EXTD=
EXTT0=
EXTT1=
EXTT2=
EXTT3=
EXTT4=
EXTT5=
EXTT6=
EXTT7=
PLAYORDER=
